<svg width="20" height="20" viewBox="0 0 20 20" fill="none" xmlns="http://www.w3.org/2000/svg">
<g id="vuesax/outline/message-text">
<g id="message-text">
<path id="Vector" d="M10 19.0083C9.42502 19.0083 8.88335 18.7167 8.50002 18.2083L7.25002 16.5417C7.22502 16.5083 7.12502 16.4667 7.08335 16.4583H6.66669C3.19169 16.4583 1.04169 15.5167 1.04169 10.8333V6.66666C1.04169 2.98333 2.98335 1.04166 6.66669 1.04166H13.3334C17.0167 1.04166 18.9584 2.98333 18.9584 6.66666V10.8333C18.9584 14.5167 17.0167 16.4583 13.3334 16.4583H12.9167C12.85 16.4583 12.7917 16.4917 12.75 16.5417L11.5 18.2083C11.1167 18.7167 10.575 19.0083 10 19.0083ZM6.66669 2.29166C3.68335 2.29166 2.29169 3.68333 2.29169 6.66666V10.8333C2.29169 14.6 3.58335 15.2083 6.66669 15.2083H7.08335C7.50835 15.2083 7.99169 15.45 8.25002 15.7917L9.50002 17.4583C9.79169 17.8417 10.2084 17.8417 10.5 17.4583L11.75 15.7917C12.025 15.425 12.4584 15.2083 12.9167 15.2083H13.3334C16.3167 15.2083 17.7084 13.8167 17.7084 10.8333V6.66666C17.7084 3.68333 16.3167 2.29166 13.3334 2.29166H6.66669Z" fill="#002855"/>
<path id="Vector_2" d="M14.1666 7.29166H5.83331C5.49165 7.29166 5.20831 7.00833 5.20831 6.66666C5.20831 6.325 5.49165 6.04166 5.83331 6.04166H14.1666C14.5083 6.04166 14.7916 6.325 14.7916 6.66666C14.7916 7.00833 14.5083 7.29166 14.1666 7.29166Z" fill="#002855"/>
<path id="Vector_3" d="M10.8333 11.4583H5.83331C5.49165 11.4583 5.20831 11.175 5.20831 10.8333C5.20831 10.4917 5.49165 10.2083 5.83331 10.2083H10.8333C11.175 10.2083 11.4583 10.4917 11.4583 10.8333C11.4583 11.175 11.175 11.4583 10.8333 11.4583Z" fill="#002855"/>
</g>
</g>
</svg>
