<svg width="30" height="30" viewBox="0 0 30 30" fill="none" xmlns="http://www.w3.org/2000/svg">
<g id="Huge-icon/interface/outline/notification 03">
<path id="Vector" d="M22.7994 11.219L22.0542 11.3036L22.7994 11.219ZM23.3584 16.1441L24.1036 16.0595L23.3584 16.1441ZM6.6416 16.1441L5.89638 16.0595H5.89638L6.6416 16.1441ZM7.20058 11.219L7.9458 11.3036L7.20058 11.219ZM5.55973 18.5902L4.98862 18.104H4.98862L5.55973 18.5902ZM24.4403 18.5902L23.8692 19.0763L24.4403 18.5902ZM17.8374 5.46708H17.0874C17.0874 5.78766 17.2912 6.07279 17.5945 6.17664L17.8374 5.46708ZM12.1626 5.46708L12.4055 6.17664C12.7088 6.07279 12.9126 5.78766 12.9126 5.46708H12.1626ZM19.4523 25.2632C19.5977 24.8753 19.4011 24.4431 19.0132 24.2977C18.6253 24.1523 18.1931 24.3489 18.0477 24.7368L19.4523 25.2632ZM11.9523 24.7368C11.8069 24.3489 11.3747 24.1523 10.9868 24.2977C10.5989 24.4431 10.4023 24.8753 10.5477 25.2632L11.9523 24.7368ZM22.2215 21.75H7.77852V23.25H22.2215V21.75ZM22.0542 11.3036L22.6132 16.2287L24.1036 16.0595L23.5446 11.1344L22.0542 11.3036ZM7.38681 16.2287L7.9458 11.3036L6.45536 11.1344L5.89638 16.0595L7.38681 16.2287ZM6.13084 19.0763C6.82957 18.2555 7.26847 17.2714 7.38681 16.2287L5.89638 16.0595C5.81338 16.7908 5.50403 17.4985 4.98862 18.104L6.13084 19.0763ZM22.6132 16.2287C22.7315 17.2714 23.1704 18.2555 23.8692 19.0763L25.0114 18.104C24.496 17.4985 24.1866 16.7908 24.1036 16.0595L22.6132 16.2287ZM7.77852 21.75C6.89493 21.75 6.25208 21.3111 5.95013 20.779C5.65558 20.26 5.66195 19.6271 6.13084 19.0763L4.98862 18.104C4.08622 19.1641 4.05926 20.4862 4.64555 21.5193C5.22445 22.5394 6.37663 23.25 7.77852 23.25V21.75ZM22.2215 23.25C23.6234 23.25 24.7756 22.5394 25.3544 21.5193C25.9407 20.4862 25.9138 19.1641 25.0114 18.104L23.8692 19.0763C24.338 19.6271 24.3444 20.26 24.0499 20.779C23.7479 21.3111 23.1051 21.75 22.2215 21.75V23.25ZM18.5874 5.46708V5.33743H17.0874V5.46708H18.5874ZM23.5446 11.1344C23.2051 8.14292 20.9836 5.75156 18.0804 4.75752L17.5945 6.17664C20.0472 7.01642 21.7909 8.98367 22.0542 11.3036L23.5446 11.1344ZM12.9126 5.46708V5.33743H11.4126V5.46708H12.9126ZM7.9458 11.3036C8.2091 8.98367 9.95279 7.01642 12.4055 6.17664L11.9196 4.75752C9.01636 5.75156 6.79489 8.14292 6.45536 11.1344L7.9458 11.3036ZM15 3.25C16.1529 3.25 17.0874 4.18458 17.0874 5.33743H18.5874C18.5874 3.35615 16.9813 1.75 15 1.75V3.25ZM15 1.75C13.0187 1.75 11.4126 3.35615 11.4126 5.33743H12.9126C12.9126 4.18458 13.8471 3.25 15 3.25V1.75ZM18.0477 24.7368C17.6158 25.8892 16.4308 26.75 15 26.75V28.25C17.0317 28.25 18.7925 27.0238 19.4523 25.2632L18.0477 24.7368ZM15 26.75C13.5692 26.75 12.3842 25.8892 11.9523 24.7368L10.5477 25.2632C11.2075 27.0238 12.9683 28.25 15 28.25V26.75Z" fill="#002855"/>
</g>
</svg>
