<svg width="21" height="26" viewBox="0 0 21 26" fill="none" xmlns="http://www.w3.org/2000/svg">
<g id="Prescription">
<path id="Fill 1" fill-rule="evenodd" clip-rule="evenodd" d="M4.34852 4.3063H5.2694C5.75735 4.33242 6.14046 4.73246 6.14046 5.21835C6.14046 5.70321 5.75735 6.10429 5.2694 6.12963H4.34852V4.3063ZM8.31094 11.2196C8.41463 11.2206 8.51441 11.179 8.58684 11.1054C8.66109 11.0338 8.70173 10.9349 8.70173 10.8321C8.70173 10.729 8.66109 10.6301 8.58684 10.5575L7.04687 9.03185L8.58684 7.50207C8.69157 7.4052 8.7343 7.25976 8.69861 7.12259C8.66396 6.98542 8.55506 6.87848 8.41672 6.84309C8.27838 6.8077 8.1317 6.8511 8.03401 6.95417L6.4943 8.48395L4.90066 6.90276H5.268C6.14024 6.81984 6.80589 6.0924 6.80589 5.22367C6.80589 4.35467 6.14024 3.62827 5.268 3.54457H3.96537C3.74966 3.54457 3.57458 3.71817 3.57458 3.93206V9.11658C3.57458 9.33047 3.74966 9.50406 3.96537 9.50406C4.18109 9.50406 4.35616 9.33047 4.35616 9.11658V7.45066L5.94797 9.03185L4.54661 10.4082C4.47236 10.4808 4.43041 10.5787 4.43041 10.6818C4.43041 10.7846 4.47236 10.8835 4.54661 10.9561C4.61877 11.0297 4.71855 11.071 4.82224 11.0692C4.92619 11.07 5.02597 11.0287 5.09814 10.9561L6.4943 9.57381L8.03401 11.1005C8.10643 11.1762 8.20621 11.2185 8.31094 11.2196Z" fill="#002855"/>
<g id="Fill 3">
<path fill-rule="evenodd" clip-rule="evenodd" d="M1.7812 19.8992V1.76173H11.55V5.60495C11.55 5.81882 11.7251 5.9924 11.9408 5.9924H15.8098V9.35028H13.8427C13.627 9.35028 13.452 9.52385 13.452 9.73773V11.5097C13.452 11.7235 13.627 11.8971 13.8427 11.8971H13.9242V12.2148C13.2381 12.4349 12.6879 12.9473 12.4232 13.6122H6.95269C6.73699 13.6122 6.56193 13.7858 6.56193 13.9996V16.3858C6.56193 16.6002 6.73699 16.7733 6.95269 16.7733H7.21319V19.8992H1.7812ZM15.2665 5.21872H12.3323V2.30935L15.2665 5.21872ZM13.5306 22.5649H19.4192V20.5165H13.5306V22.5649ZM7.995 24.219H12.7497V23.3412H7.995V24.219ZM7.995 22.5582H12.7497V18.425H7.995V22.5582ZM14.2471 11.1169H18.2309V10.1199H14.2471V11.1169ZM14.7061 12.0996H17.7593V11.8906H14.7061V12.0996ZM19.4129 14.8301H14.1791V13.9986C14.1791 13.7847 14.0051 13.6111 13.7883 13.6111H13.3072C13.6031 13.1521 14.115 12.8747 14.6647 12.8747H17.7909C18.6832 12.8765 19.4069 13.5941 19.4079 14.4791L19.4129 14.8301ZM13.5257 19.7409V16.7752H13.7862C14.0011 16.7744 14.1752 16.6021 14.177 16.3877V15.6128H19.4192V19.7459L13.5257 19.7409ZM12.2602 16.7698H12.7445V17.6476H7.995V16.7698H12.2602ZM7.33889 15.9953V14.3858H13.398V15.9971L7.33889 15.9953ZM18.5401 12.2143V11.8914H18.6206C18.8363 11.8914 19.0113 11.7178 19.0113 11.5039V9.73228C19.0113 9.51815 18.8363 9.34483 18.6206 9.34483H16.5915V5.60442C16.5947 5.5791 16.5947 5.55405 16.5915 5.52977C16.5855 5.49645 16.5743 5.46416 16.5579 5.43394V5.41379C16.5407 5.38357 16.5194 5.35516 16.4946 5.33114L12.218 1.10745C12.1945 1.08214 12.1661 1.06199 12.1346 1.04804L12.1133 1.03487C12.0836 1.01963 12.052 1.00852 12.0195 1.00155C11.995 0.999483 11.9695 0.999483 11.9442 1.00155H1.39075C1.18417 1.00155 1.01329 1.16092 1 1.36575V20.2861C1 20.4999 1.17506 20.6735 1.39075 20.6735H7.21348V24.6126C7.21348 24.8264 7.38854 25 7.60423 25H13.1399C13.3556 25 13.5306 24.8264 13.5306 24.6126V23.3474H19.8092C20.0239 23.3453 20.1979 23.1728 20.2 22.9602V14.4795C20.199 13.4481 19.5292 12.534 18.5401 12.2143Z" fill="#002855"/>
<path d="M1.7812 19.8992H1.6312V20.0492H1.7812V19.8992ZM1.7812 1.76173V1.61173H1.6312V1.76173H1.7812ZM11.55 1.76173H11.7V1.61173H11.55V1.76173ZM15.8098 5.9924H15.9598V5.8424H15.8098V5.9924ZM15.8098 9.35028V9.50028H15.9598V9.35028H15.8098ZM13.9242 11.8971H14.0742V11.7471H13.9242V11.8971ZM13.9242 12.2148L13.9701 12.3576L14.0742 12.3242V12.2148H13.9242ZM12.4232 13.6122V13.7622H12.525L12.5626 13.6677L12.4232 13.6122ZM7.21319 16.7733H7.36319V16.6233H7.21319V16.7733ZM7.21319 19.8992V20.0492H7.36319V19.8992H7.21319ZM15.2665 5.21872V5.36872H15.6309L15.3722 5.1122L15.2665 5.21872ZM12.3323 5.21872H12.1823V5.36872H12.3323V5.21872ZM12.3323 2.30935L12.438 2.20283L12.1823 1.94938V2.30935H12.3323ZM13.5306 22.5649H13.3806V22.7149H13.5306V22.5649ZM19.4192 22.5649V22.7149H19.5692V22.5649H19.4192ZM19.4192 20.5165H19.5692V20.3665H19.4192V20.5165ZM13.5306 20.5165V20.3665H13.3806V20.5165H13.5306ZM7.995 24.219H7.845V24.369H7.995V24.219ZM12.7497 24.219V24.369H12.8997V24.219H12.7497ZM12.7497 23.3412H12.8997V23.1912H12.7497V23.3412ZM7.995 23.3412V23.1912H7.845V23.3412H7.995ZM7.995 22.5582H7.845V22.7082H7.995V22.5582ZM12.7497 22.5582V22.7082H12.8997V22.5582H12.7497ZM12.7497 18.425H12.8997V18.275H12.7497V18.425ZM7.995 18.425V18.275H7.845V18.425H7.995ZM14.2471 11.1169H14.0971V11.2669H14.2471V11.1169ZM18.2309 11.1169V11.2669H18.3809V11.1169H18.2309ZM18.2309 10.1199H18.3809V9.96988H18.2309V10.1199ZM14.2471 10.1199V9.96988H14.0971V10.1199H14.2471ZM14.7061 12.0996H14.5561V12.2496H14.7061V12.0996ZM17.7593 12.0996V12.2496H17.9093V12.0996H17.7593ZM17.7593 11.8906H17.9093V11.7406H17.7593V11.8906ZM14.7061 11.8906V11.7406H14.5561V11.8906H14.7061ZM19.4129 14.8301V14.9801H19.565L19.5629 14.828L19.4129 14.8301ZM14.1791 14.8301H14.0291V14.9801H14.1791V14.8301ZM13.3072 13.6111L13.1811 13.5299L13.032 13.7611H13.3072V13.6111ZM17.7909 12.8747L17.7912 12.7247H17.7909V12.8747ZM19.4079 14.4791L19.2579 14.4792L19.2579 14.4812L19.4079 14.4791ZM13.5257 19.7409H13.3757V19.8908L13.5256 19.8909L13.5257 19.7409ZM13.5257 16.7752V16.6252H13.3757V16.7752H13.5257ZM13.7862 16.7752V16.9252L13.7868 16.9252L13.7862 16.7752ZM14.177 16.3877L14.327 16.389V16.3877H14.177ZM14.177 15.6128V15.4628H14.027V15.6128H14.177ZM19.4192 15.6128H19.5692V15.4628H19.4192V15.6128ZM19.4192 19.7459L19.4191 19.8959L19.5692 19.896V19.7459H19.4192ZM12.7445 16.7698H12.8945V16.6198H12.7445V16.7698ZM12.7445 17.6476V17.7976H12.8945V17.6476H12.7445ZM7.995 17.6476H7.845V17.7976H7.995V17.6476ZM7.995 16.7698V16.6198H7.845V16.7698H7.995ZM7.33889 15.9953H7.18889V16.1453L7.33884 16.1453L7.33889 15.9953ZM7.33889 14.3858V14.2358H7.18889V14.3858H7.33889ZM13.398 14.3858H13.548V14.2358H13.398V14.3858ZM13.398 15.9971L13.3979 16.1471L13.548 16.1472V15.9971H13.398ZM18.5401 11.8914V11.7414H18.3901V11.8914H18.5401ZM16.5915 9.34483H16.4415V9.49483H16.5915V9.34483ZM16.5915 5.60442L16.4427 5.58603L16.4415 5.59519V5.60442H16.5915ZM16.5915 5.52977L16.7405 5.51059L16.7392 5.50322L16.5915 5.52977ZM16.5579 5.43394H16.4079V5.47204L16.4261 5.50552L16.5579 5.43394ZM16.5579 5.41379H16.7079V5.37411L16.6883 5.33962L16.5579 5.41379ZM16.4946 5.33114L16.3892 5.43787L16.3902 5.43877L16.4946 5.33114ZM12.218 1.10745L12.1078 1.20948L12.1126 1.21418L12.218 1.10745ZM12.1346 1.04804L12.0559 1.17572L12.0646 1.18108L12.0739 1.18521L12.1346 1.04804ZM12.1133 1.03487L12.1922 0.906801L12.1817 0.901416L12.1133 1.03487ZM12.0195 1.00155L12.0509 0.854876L12.0416 0.852882L12.0321 0.852081L12.0195 1.00155ZM11.9442 1.00155V1.15205L11.9564 1.15105L11.9442 1.00155ZM1 1.36575L0.85 1.35602V1.36575H1ZM7.21348 20.6735H7.36348V20.5235H7.21348V20.6735ZM13.5306 23.3474V23.1974H13.3806V23.3474H13.5306ZM19.8092 23.3474V23.4974L19.8107 23.4974L19.8092 23.3474ZM20.2 22.9602L20.35 22.9617V22.9602H20.2ZM20.2 14.4795H20.35V14.4794L20.2 14.4795ZM18.5401 12.2143H18.3901V12.3234L18.4939 12.357L18.5401 12.2143ZM1.9312 19.8992V1.76173H1.6312V19.8992H1.9312ZM1.7812 1.91173H11.55V1.61173H1.7812V1.91173ZM11.4 1.76173V5.60495H11.7V1.76173H11.4ZM11.4 5.60495C11.4 5.90286 11.6434 6.1424 11.9408 6.1424V5.8424C11.8067 5.8424 11.7 5.73478 11.7 5.60495H11.4ZM11.9408 6.1424H15.8098V5.8424H11.9408V6.1424ZM15.6598 5.9924V9.35028H15.9598V5.9924H15.6598ZM15.8098 9.20028H13.8427V9.50028H15.8098V9.20028ZM13.8427 9.20028C13.5454 9.20028 13.302 9.43981 13.302 9.73773H13.602C13.602 9.60789 13.7086 9.50028 13.8427 9.50028V9.20028ZM13.302 9.73773V11.5097H13.602V9.73773H13.302ZM13.302 11.5097C13.302 11.8076 13.5454 12.0471 13.8427 12.0471V11.7471C13.7086 11.7471 13.602 11.6395 13.602 11.5097H13.302ZM13.8427 12.0471H13.9242V11.7471H13.8427V12.0471ZM13.7742 11.8971V12.2148H14.0742V11.8971H13.7742ZM13.8784 12.072C13.1499 12.3056 12.5652 12.8499 12.2839 13.5567L12.5626 13.6677C12.8106 13.0447 13.3263 12.5641 13.9701 12.3576L13.8784 12.072ZM12.4232 13.4622H6.95269V13.7622H12.4232V13.4622ZM6.95269 13.4622C6.65535 13.4622 6.41193 13.7017 6.41193 13.9996H6.71193C6.71193 13.8698 6.81863 13.7622 6.95269 13.7622V13.4622ZM6.41193 13.9996V16.3858H6.71193V13.9996H6.41193ZM6.41193 16.3858C6.41193 16.6844 6.65548 16.9233 6.95269 16.9233V16.6233C6.8185 16.6233 6.71193 16.516 6.71193 16.3858H6.41193ZM6.95269 16.9233H7.21319V16.6233H6.95269V16.9233ZM7.06319 16.7733V19.8992H7.36319V16.7733H7.06319ZM7.21319 19.7492H1.7812V20.0492H7.21319V19.7492ZM15.2665 5.06872H12.3323V5.36872H15.2665V5.06872ZM12.4823 5.21872V2.30935H12.1823V5.21872H12.4823ZM12.2267 2.41586L15.1609 5.32523L15.3722 5.1122L12.438 2.20283L12.2267 2.41586ZM13.5306 22.7149H19.4192V22.4149H13.5306V22.7149ZM19.5692 22.5649V20.5165H19.2692V22.5649H19.5692ZM19.4192 20.3665H13.5306V20.6665H19.4192V20.3665ZM13.3806 20.5165V22.5649H13.6806V20.5165H13.3806ZM7.995 24.369H12.7497V24.069H7.995V24.369ZM12.8997 24.219V23.3412H12.5997V24.219H12.8997ZM12.7497 23.1912H7.995V23.4912H12.7497V23.1912ZM7.845 23.3412V24.219H8.145V23.3412H7.845ZM7.995 22.7082H12.7497V22.4082H7.995V22.7082ZM12.8997 22.5582V18.425H12.5997V22.5582H12.8997ZM12.7497 18.275H7.995V18.575H12.7497V18.275ZM7.845 18.425V22.5582H8.145V18.425H7.845ZM14.2471 11.2669H18.2309V10.9669H14.2471V11.2669ZM18.3809 11.1169V10.1199H18.0809V11.1169H18.3809ZM18.2309 9.96988H14.2471V10.2699H18.2309V9.96988ZM14.0971 10.1199V11.1169H14.3971V10.1199H14.0971ZM14.7061 12.2496H17.7593V11.9496H14.7061V12.2496ZM17.9093 12.0996V11.8906H17.6093V12.0996H17.9093ZM17.7593 11.7406H14.7061V12.0406H17.7593V11.7406ZM14.5561 11.8906V12.0996H14.8561V11.8906H14.5561ZM19.4129 14.6801H14.1791V14.9801H19.4129V14.6801ZM14.3291 14.8301V13.9986H14.0291V14.8301H14.3291ZM14.3291 13.9986C14.3291 13.7009 14.087 13.4611 13.7883 13.4611V13.7611C13.9232 13.7611 14.0291 13.8685 14.0291 13.9986H14.3291ZM13.7883 13.4611H13.3072V13.7611H13.7883V13.4611ZM13.4332 13.6924C13.7013 13.2766 14.1655 13.0247 14.6647 13.0247V12.7247C14.0645 12.7247 13.5049 13.0276 13.1811 13.5299L13.4332 13.6924ZM14.6647 13.0247H17.7909V12.7247H14.6647V13.0247ZM17.7906 13.0247C18.6015 13.0263 19.257 13.6782 19.2579 14.4792L19.5579 14.4789C19.5568 13.51 18.7649 12.7267 17.7912 12.7247L17.7906 13.0247ZM19.2579 14.4812L19.2629 14.8322L19.5629 14.828L19.5579 14.477L19.2579 14.4812ZM13.6757 19.7409V16.7752H13.3757V19.7409H13.6757ZM13.5257 16.9252H13.7862V16.6252H13.5257V16.9252ZM13.7868 16.9252C14.0832 16.9241 14.3245 16.6861 14.327 16.389L14.027 16.3865C14.0259 16.5182 13.919 16.6247 13.7857 16.6252L13.7868 16.9252ZM14.327 16.3877V15.6128H14.027V16.3877H14.327ZM14.177 15.7628H19.4192V15.4628H14.177V15.7628ZM19.2692 15.6128V19.7459H19.5692V15.6128H19.2692ZM19.4193 19.5959L13.5258 19.5909L13.5256 19.8909L19.4191 19.8959L19.4193 19.5959ZM12.2602 16.9198H12.7445V16.6198H12.2602V16.9198ZM12.5945 16.7698V17.6476H12.8945V16.7698H12.5945ZM12.7445 17.4976H7.995V17.7976H12.7445V17.4976ZM8.145 17.6476V16.7698H7.845V17.6476H8.145ZM7.995 16.9198H12.2602V16.6198H7.995V16.9198ZM7.48889 15.9953V14.3858H7.18889V15.9953H7.48889ZM7.33889 14.5358H13.398V14.2358H7.33889V14.5358ZM13.248 14.3858V15.9971H13.548V14.3858H13.248ZM13.398 15.8471L7.33893 15.8453L7.33884 16.1453L13.3979 16.1471L13.398 15.8471ZM18.6901 12.2143V11.8914H18.3901V12.2143H18.6901ZM18.5401 12.0414H18.6206V11.7414H18.5401V12.0414ZM18.6206 12.0414C18.9179 12.0414 19.1613 11.8019 19.1613 11.5039H18.8613C18.8613 11.6338 18.7546 11.7414 18.6206 11.7414V12.0414ZM19.1613 11.5039V9.73228H18.8613V11.5039H19.1613ZM19.1613 9.73228C19.1613 9.43404 18.9178 9.19483 18.6206 9.19483V9.49483C18.7547 9.49483 18.8613 9.60225 18.8613 9.73228H19.1613ZM18.6206 9.19483H16.5915V9.49483H18.6206V9.19483ZM16.7415 9.34483V5.60442H16.4415V9.34483H16.7415ZM16.7404 5.6228C16.745 5.58554 16.7451 5.54787 16.7403 5.51061L16.4428 5.54892C16.4442 5.56023 16.4443 5.57266 16.4427 5.58603L16.7404 5.6228ZM16.7392 5.50322C16.7304 5.4544 16.7139 5.40688 16.6897 5.36236L16.4261 5.50552C16.4348 5.52145 16.4407 5.5385 16.4439 5.55632L16.7392 5.50322ZM16.7079 5.43394V5.41379H16.4079V5.43394H16.7079ZM16.6883 5.33962C16.6649 5.29842 16.6351 5.25842 16.5991 5.22351L16.3902 5.43877C16.4037 5.4519 16.4166 5.46872 16.4276 5.48797L16.6883 5.33962ZM16.6 5.22441L12.3234 1.00073L12.1126 1.21418L16.3892 5.43786L16.6 5.22441ZM12.328 1.00552C12.2905 0.965003 12.2452 0.932962 12.1953 0.910873L12.0739 1.18521C12.087 1.19102 12.0986 1.19927 12.1079 1.20938L12.328 1.00552ZM12.2133 0.920368L12.192 0.907195L12.0345 1.16255L12.0559 1.17572L12.2133 0.920368ZM12.1817 0.901416C12.14 0.879995 12.096 0.864532 12.0509 0.854876L11.9881 1.14822C12.0081 1.15252 12.0271 1.15927 12.0448 1.16832L12.1817 0.901416ZM12.0321 0.852081C11.9991 0.849296 11.9652 0.849328 11.932 0.852049L11.9564 1.15105C11.9737 1.14964 11.9909 1.14967 12.0069 1.15102L12.0321 0.852081ZM11.9442 0.85155H1.39075V1.15155H11.9442V0.85155ZM1.39075 0.85155C1.10584 0.85155 0.868766 1.07157 0.850315 1.35604L1.14969 1.37546C1.15781 1.25027 1.26251 1.15155 1.39075 1.15155V0.85155ZM0.85 1.36575V20.2861H1.15V1.36575H0.85ZM0.85 20.2861C0.85 20.584 1.09342 20.8235 1.39075 20.8235V20.5235C1.2567 20.5235 1.15 20.4159 1.15 20.2861H0.85ZM1.39075 20.8235H7.21348V20.5235H1.39075V20.8235ZM7.06348 20.6735V24.6126H7.36348V20.6735H7.06348ZM7.06348 24.6126C7.06348 24.9105 7.3069 25.15 7.60423 25.15V24.85C7.47018 24.85 7.36348 24.7424 7.36348 24.6126H7.06348ZM7.60423 25.15H13.1399V24.85H7.60423V25.15ZM13.1399 25.15C13.4372 25.15 13.6806 24.9105 13.6806 24.6126H13.3806C13.3806 24.7424 13.2739 24.85 13.1399 24.85V25.15ZM13.6806 24.6126V23.3474H13.3806V24.6126H13.6806ZM13.5306 23.4974H19.8092V23.1974H13.5306V23.4974ZM19.8107 23.4974C20.1058 23.4946 20.3471 23.2572 20.35 22.9617L20.05 22.9588C20.0487 23.0884 19.942 23.1961 19.8078 23.1974L19.8107 23.4974ZM20.35 22.9602V14.4795H20.05V22.9602H20.35ZM20.35 14.4794C20.3489 13.3823 19.6365 12.4111 18.5862 12.0715L18.4939 12.357C19.4219 12.657 20.049 13.514 20.05 14.4797L20.35 14.4794Z" fill="#002855"/>
</g>
</g>
</svg>
