<svg width="23" height="24" viewBox="0 0 23 24" fill="none" xmlns="http://www.w3.org/2000/svg">
<g id="Layer 2">
<g id="search">
<path id="Vector" d="M19.0339 18.7005L15.9092 15.5849C16.9173 14.3005 17.4643 12.7145 17.4623 11.0817C17.4623 9.62755 17.0311 8.20606 16.2232 6.99699C15.4154 5.78792 14.2671 4.84557 12.9236 4.28909C11.5802 3.73262 10.1019 3.58702 8.67571 3.87071C7.24952 4.15439 5.93947 4.85463 4.91124 5.88286C3.88301 6.91109 3.18278 8.22113 2.89909 9.64733C2.6154 11.0735 2.761 12.5518 3.31747 13.8953C3.87395 15.2387 4.8163 16.387 6.02537 17.1949C7.23445 18.0027 8.65593 18.4339 10.1101 18.4339C11.7429 18.436 13.3289 17.8889 14.6133 16.8808L17.7288 20.0055C17.8143 20.0916 17.9159 20.16 18.0279 20.2066C18.1399 20.2533 18.26 20.2773 18.3813 20.2773C18.5027 20.2773 18.6228 20.2533 18.7348 20.2066C18.8468 20.16 18.9484 20.0916 19.0339 20.0055C19.12 19.92 19.1884 19.8184 19.235 19.7064C19.2817 19.5944 19.3057 19.4743 19.3057 19.353C19.3057 19.2316 19.2817 19.1115 19.235 18.9995C19.1884 18.8875 19.12 18.7859 19.0339 18.7005ZM4.59588 11.0817C4.59588 9.99108 4.91928 8.92497 5.52519 8.01817C6.13109 7.11136 6.99229 6.40459 7.99988 5.98724C9.00746 5.56988 10.1162 5.46068 11.1858 5.67345C12.2555 5.88622 13.238 6.41139 14.0092 7.18256C14.7804 7.95374 15.3055 8.93627 15.5183 10.0059C15.7311 11.0756 15.6219 12.1843 15.2045 13.1919C14.7872 14.1995 14.0804 15.0607 13.1736 15.6666C12.2668 16.2725 11.2007 16.5959 10.1101 16.5959C8.64761 16.5959 7.24506 16.0149 6.21095 14.9808C5.17684 13.9467 4.59588 12.5441 4.59588 11.0817Z" fill="#6B7280"/>
</g>
</g>
</svg>
