<svg width="22" height="18" viewBox="0 0 22 18" fill="none" xmlns="http://www.w3.org/2000/svg">
<g id="wallet coins">
<path id="Ellipse 314" d="M10.25 5C10.25 2.79086 8.45914 1 6.25 1C4.04086 1 2.25 2.79086 2.25 5" stroke="#002855" stroke-linejoin="round"/>
<path id="Ellipse 314_2" d="M16.7495 5C16.7495 2.79086 14.9587 1 12.7495 1C11.3996 1 10.2058 1.66873 9.48145 2.69299" stroke="#002855" stroke-linejoin="round"/>
<path id="Rectangle 529" d="M19.25 8.98611V6C19.25 5.44772 18.8023 5 18.25 5H15.9559H6.25H2.25C1.69772 5 1.25 5.44772 1.25 6V16C1.25 16.5523 1.69772 17 2.25 17H18.25C18.8023 17 19.25 16.5523 19.25 16V13.0139" stroke="#002855" stroke-linejoin="round"/>
<path id="Rectangle 529_2" d="M20.75 8.99997H17.25C16.1454 8.99997 15.25 9.8954 15.25 11V11C15.25 12.1045 16.1454 13 17.25 13H20.75V8.99997Z" stroke="#002855" stroke-linejoin="round"/>
</g>
</svg>
